<?xml version="1.0" encoding="UTF-8"?>
<svg id="_레이어_2" data-name="레이어 2" xmlns="http://www.w3.org/2000/svg" viewBox="0 0 299.03 106.43">
  <defs>
    <style>
      .cls-1 {
        fill: #231815;
      }
    </style>
  </defs>
  <g id="_레이어_1-2" data-name="레이어 1">
    <path class="cls-1" d="M108.47,31.17c-10.11,0-19.31,4.22-25.87,10.96-6.59,6.7-10.68,16.02-10.68,26.21s4.08,19.52,10.68,26.22c6.57,6.74,15.76,10.93,25.87,10.93h.02c10.1,0,19.28-4.19,25.85-10.93,6.61-6.7,10.67-16.03,10.67-26.22s-4.07-19.51-10.67-26.21c-6.57-6.74-15.75-10.96-25.87-10.96ZM125.21,85.61c-4.34,4.41-10.22,7.09-16.75,7.09s-12.41-2.68-16.74-7.09c-4.35-4.42-7.03-10.48-7.03-17.27s2.68-12.85,7.03-17.3c4.33-4.39,10.21-7.09,16.74-7.09s12.41,2.7,16.75,7.09c4.31,4.45,6.99,10.51,7.02,17.3-.03,6.79-2.71,12.86-7.02,17.27ZM37.8,42.29c7.59,0,14.33,3.4,18.95,8.92,2.29,2.67,6.31,3.04,9.01.75,2.71-2.27,3.05-6.3.76-9.01-6.89-8.21-17.24-13.42-28.72-13.42-10.44,0-20,4.34-26.79,11.31C4.21,47.77-.02,57.4,0,67.98c-.02,10.55,4.21,20.18,11.01,27.12,6.82,6.97,16.34,11.33,26.79,11.33h.04c11.48,0,21.8-5.24,28.68-13.44,2.29-2.71,1.95-6.73-.76-9.01-2.69-2.27-6.72-1.93-9.01.78-4.62,5.47-11.37,8.87-18.95,8.87-6.89,0-13.11-2.81-17.64-7.46-4.58-4.64-7.39-11.04-7.39-18.19s2.81-13.56,7.39-18.22c4.53-4.62,10.75-7.47,17.64-7.47ZM298.87,7.8c.77-3.43-1.36-6.86-4.82-7.64-3.43-.78-6.86,1.4-7.64,4.85-1.86,8.28-6,19.82-12.39,31.54-3.98,7.28-8.8,14.61-14.46,21.4l-22.47-24.68c-2.38-2.59-6.4-2.78-9.03-.4-2.57,2.36-2.79,6.42-.42,9.03l23.16,25.38c-.83.79-1.69,1.6-2.57,2.37-18.55,16.33-38.4,24.04-53.99,23.99-10.63,0-19.04-3.37-24.84-9.62-2.44-2.63-4.06-5.83-4.9-9.7h46.33s2.68-.16,4.57-.43c2.12-.32,3.32-1.05,3.32-1.05,2.4-1.26,3.61-3.25,4.19-4.94.65-1.74.75-3.15.75-4.22,0-.91-.1-1.53-.13-1.79-2.83-17.43-17.78-30.67-35.87-30.7h-.19c-20.15.13-36.43,16.63-36.48,36.85v.13c.1,9.16,2.88,17.92,8.99,24.53,8.56,9.26,20.83,13.75,34.12,13.75h.13c19.68-.05,42-9.26,62.46-27.2.92-.83,1.79-1.71,2.71-2.53l24.41,26.76c1.29,1.4,3.02,2.09,4.72,2.09,1.55,0,3.09-.54,4.31-1.67,2.61-2.38,2.79-6.42.41-9.01l-25.03-27.43c6.75-7.9,12.4-16.41,16.98-24.78,6.97-12.78,11.5-25.19,13.65-34.87ZM187.58,43.95h.14c10.82,0,19.97,7.43,22.69,17.57h-45.74c2.88-10.11,12.08-17.54,22.91-17.57Z"/>
  </g>
</svg>