<?xml version="1.0" encoding="UTF-8"?>
<svg id="_레이어_1" data-name="레이어 1" xmlns="http://www.w3.org/2000/svg" xmlns:xlink="http://www.w3.org/1999/xlink" viewBox="0 0 106.45 106.45">
  <defs>
    <style>
      .cls-1 {
        fill: none;
      }

      .cls-2 {
        fill: url(#_무제_그라디언트_54-5);
      }

      .cls-3 {
        fill: url(#_무제_그라디언트_54-4);
      }

      .cls-4 {
        fill: url(#_무제_그라디언트_54-3);
      }

      .cls-5 {
        fill: url(#_무제_그라디언트_54-2);
      }

      .cls-6 {
        fill: url(#_무제_그라디언트_57-2);
      }

      .cls-7 {
        fill: url(#_무제_그라디언트_57-3);
      }

      .cls-8 {
        clip-path: url(#clippath-1);
      }

      .cls-9 {
        clip-path: url(#clippath-3);
      }

      .cls-10 {
        clip-path: url(#clippath-4);
      }

      .cls-11 {
        clip-path: url(#clippath-2);
      }

      .cls-12 {
        clip-path: url(#clippath-7);
      }

      .cls-13 {
        clip-path: url(#clippath-6);
      }

      .cls-14 {
        clip-path: url(#clippath-5);
      }

      .cls-15 {
        fill: #fff;
      }

      .cls-16 {
        fill: url(#_무제_그라디언트_54);
      }

      .cls-17 {
        fill: url(#_무제_그라디언트_57);
      }

      .cls-18 {
        clip-path: url(#clippath);
      }
    </style>
    <clipPath id="clippath">
      <rect class="cls-1" x="59.72" width="12.97" height="46.73"/>
    </clipPath>
    <linearGradient id="_무제_그라디언트_54" data-name="무제 그라디언트 54" x1="5253.63" y1="441.07" x2="5254.18" y2="441.07" gradientTransform="translate(439438.99 -36861.61) rotate(-180) scale(83.63 -83.63)" gradientUnits="userSpaceOnUse">
      <stop offset="0" stop-color="#d678ff"/>
      <stop offset=".1" stop-color="#d678ff"/>
      <stop offset="1" stop-color="#3ec0ff"/>
    </linearGradient>
    <clipPath id="clippath-1">
      <rect class="cls-1" x="47.79" y="4.94" width="12.97" height="46.73" transform="translate(-4.12 46.67) rotate(-45)"/>
    </clipPath>
    <linearGradient id="_무제_그라디언트_54-2" data-name="무제 그라디언트 54" x1="5253.63" y1="441.11" x2="5254.18" y2="441.11" gradientTransform="translate(439438.99 -36860.76) rotate(180) scale(83.63 -83.63)" xlink:href="#_무제_그라디언트_54"/>
    <clipPath id="clippath-2">
      <rect class="cls-1" x="71.66" y="28.81" width="12.97" height="46.73" transform="translate(-14 70.54) rotate(-45)"/>
    </clipPath>
    <linearGradient id="_무제_그라디언트_54-3" data-name="무제 그라디언트 54" x1="5253.63" y1="440.79" x2="5254.18" y2="440.79" gradientTransform="translate(439462.86 -36809.48) rotate(-180) scale(83.63 -83.63)" xlink:href="#_무제_그라디언트_54"/>
    <clipPath id="clippath-3">
      <rect class="cls-1" x="59.72" y="33.75" width="46.73" height="12.97"/>
    </clipPath>
    <linearGradient id="_무제_그라디언트_54-4" data-name="무제 그라디언트 54" x1="5253.63" y1="440.84" x2="5254.18" y2="440.84" gradientTransform="translate(439455.87 -36825.48) rotate(180) scale(83.63 -83.63)" xlink:href="#_무제_그라디언트_54"/>
    <clipPath id="clippath-4">
      <rect class="cls-1" x="54.78" y="21.82" width="46.73" height="12.97" transform="translate(2.87 63.55) rotate(-45)"/>
    </clipPath>
    <linearGradient id="_무제_그라디언트_54-5" data-name="무제 그라디언트 54" x1="5253.63" y1="440.95" x2="5254.18" y2="440.95" gradientTransform="translate(439445.95 -36846.97) rotate(-180) scale(83.63 -83.63)" xlink:href="#_무제_그라디언트_54"/>
    <clipPath id="clippath-5">
      <polygon class="cls-1" points="72.7 33.75 16.88 33.75 16.88 46.73 59.72 46.73 59.72 89.57 72.7 89.57 72.7 33.75"/>
    </clipPath>
    <linearGradient id="_무제_그라디언트_57" data-name="무제 그라디언트 57" x1="5187.33" y1="511.29" x2="5187.88" y2="511.29" gradientTransform="translate(-954341.3 94124.39) scale(183.97 -183.97)" gradientUnits="userSpaceOnUse">
      <stop offset="0" stop-color="#82fe07"/>
      <stop offset=".35" stop-color="#00da9a"/>
      <stop offset=".8" stop-color="#6ed0ff"/>
      <stop offset=".97" stop-color="#beebff"/>
      <stop offset="1" stop-color="#beebff"/>
    </linearGradient>
    <clipPath id="clippath-6">
      <polygon class="cls-1" points="55.82 106.45 55.82 93.48 12.97 93.48 12.97 50.63 0 50.63 0 106.45 55.82 106.45"/>
    </clipPath>
    <linearGradient id="_무제_그라디언트_57-2" data-name="무제 그라디언트 57" x1="5187.33" y1="511.29" x2="5187.88" y2="511.29" gradientTransform="translate(-954334.31 94141.49) scale(183.97 -183.97)" xlink:href="#_무제_그라디언트_57"/>
    <clipPath id="clippath-7">
      <rect class="cls-1" x="27.26" y="61.01" width="18.17" height="18.17" rx="1.79" ry="1.79"/>
    </clipPath>
    <linearGradient id="_무제_그라디언트_57-3" data-name="무제 그라디언트 57" x1="5187.33" y1="511.29" x2="5187.88" y2="511.29" gradientTransform="translate(-954337.77 94133.2) scale(183.97 -183.97)" xlink:href="#_무제_그라디언트_57"/>
  </defs>
  <g class="cls-18">
    <rect class="cls-16" x="45.1" y="2.26" width="42.21" height="42.21" transform="translate(2.87 53.66) rotate(-45)"/>
  </g>
  <g class="cls-8">
    <rect class="cls-5" x="24.43" y="-1.54" width="59.7" height="59.7" transform="translate(-4.12 46.67) rotate(-45)"/>
  </g>
  <g class="cls-11">
    <rect class="cls-4" x="48.29" y="22.32" width="59.7" height="59.7" transform="translate(-14 70.54) rotate(-45)"/>
  </g>
  <g class="cls-9">
    <rect class="cls-3" x="61.98" y="19.13" width="42.21" height="42.21" transform="translate(-4.12 70.54) rotate(-45)"/>
  </g>
  <g class="cls-10">
    <rect class="cls-2" x="48.29" y="-1.54" width="59.7" height="59.7" transform="translate(2.87 63.55) rotate(-45)"/>
  </g>
  <g class="cls-14">
    <rect class="cls-17" x="5.32" y="22.19" width="78.94" height="78.94" transform="translate(-30.48 49.73) rotate(-45)"/>
  </g>
  <g class="cls-13">
    <rect class="cls-6" x="-11.56" y="39.07" width="78.94" height="78.94" transform="translate(-47.36 42.74) rotate(-45)"/>
  </g>
  <g class="cls-12">
    <rect class="cls-7" x="23.5" y="57.25" width="25.7" height="25.7" transform="translate(-38.92 46.23) rotate(-45)"/>
  </g>
  <rect class="cls-15" x="29.86" y="63.61" width="6.17" height="6.17"/>
</svg>