<svg width="21.47058823529412" height="10" viewBox="0 0 73 34" fill="none" xmlns="http://www.w3.org/2000/svg">
<path d="M66.626 33.3545V9.49219H72.251V33.3545H66.626ZM66.2305 3.03223C66.2305 1.3623 67.7026 0 69.4824 0C71.2622 0 72.7344 1.3623 72.7344 3.03223C72.7344 4.72412 71.2622 6.08643 69.4824 6.1084C67.7026 6.08643 66.2305 4.72412 66.2305 3.03223Z" fill="#9748FF"/>
<path d="M51.4639 33.3545V9.49219H56.9131V13.4473H57.1768C58.0337 10.7007 60.3188 9.14062 63.0654 9.14062C63.6807 9.14062 64.5596 9.20654 65.0869 9.27246V14.458C64.5815 14.2822 63.417 14.1284 62.4941 14.1064C59.374 14.1284 57.0889 16.2817 57.0889 19.292V33.3545H51.4639Z" fill="#9748FF"/>
<path d="M37.4873 33.8389C30.522 33.8389 26.0615 28.895 26.0615 21.5342C26.0615 14.1074 30.522 9.18555 37.4873 9.18555C44.4746 9.18555 48.9351 14.1074 48.9131 21.5342C48.9351 28.895 44.4746 33.8389 37.4873 33.8389ZM31.7305 21.4902C31.7305 25.8628 33.6421 29.3564 37.5312 29.3564C41.3545 29.3564 43.2661 25.8628 43.2441 21.4902C43.2661 17.1177 41.3545 13.6021 37.5312 13.624C33.6421 13.6021 31.7305 17.1177 31.7305 21.4902Z" fill="#9748FF"/>
<path d="M18.457 10.2842C18.1714 7.5376 15.8643 5.95557 12.4365 5.97754C8.81104 5.95557 6.65771 7.71338 6.63574 10.1084C6.61377 12.7891 9.44824 13.8877 12.085 14.5029L15.0732 15.2939C19.8193 16.3926 24.3896 18.8975 24.3896 24.4346C24.3896 30.0156 19.9731 33.8389 12.3486 33.8389C4.94385 33.8389 0.241699 30.2793 0 23.9951H5.625C5.88867 27.313 8.6792 28.939 12.3047 28.9609C16.062 28.939 18.6548 27.1152 18.6768 24.3906C18.6548 21.8857 16.3696 20.8311 12.9199 19.9521L9.31641 19.0293C4.08691 17.667 0.834961 15.0303 0.834961 10.46C0.834961 4.83496 5.82275 1.09961 12.5244 1.09961C19.27 1.09961 23.8623 4.90088 23.9502 10.2842H18.457Z" fill="#9748FF"/>
</svg>
