<svg width="35" height="13" viewBox="0 0 35 13" fill="none" xmlns="http://www.w3.org/2000/svg">
<path d="M4.31988 12.288C2.73588 12.288 1.15188 11.664 -0.00011909 10.56L1.35988 8.92796C2.20788 9.71196 3.32788 10.24 4.36788 10.24C5.59988 10.24 6.25588 9.71196 6.25588 8.87996C6.25588 7.99996 5.53588 7.72796 4.47988 7.27996L2.89588 6.60796C1.69588 6.11196 0.495881 5.15196 0.495881 3.42396C0.495881 1.48796 2.19188 -3.52859e-05 4.59188 -3.52859e-05C5.96788 -3.52859e-05 7.34388 0.543964 8.30388 1.51996L7.10388 3.00796C6.35188 2.38396 5.56788 2.03196 4.59188 2.03196C3.55188 2.03196 2.89588 2.49596 2.89588 3.27996C2.89588 4.12796 3.72788 4.43196 4.73588 4.83196L6.28788 5.48796C7.72788 6.07996 8.67188 6.99196 8.67188 8.70396C8.67188 10.64 7.05588 12.288 4.31988 12.288ZM14.8323 12.288C11.6963 12.288 9.53626 9.93596 9.53626 6.09596C9.53626 2.23996 11.6963 -3.52859e-05 14.8323 -3.52859e-05C17.9683 -3.52859e-05 20.1283 2.25596 20.1283 6.09596C20.1283 9.93596 17.9683 12.288 14.8323 12.288ZM14.8323 10.24C16.5923 10.24 17.7123 8.62396 17.7123 6.09596C17.7123 3.55196 16.5923 2.03196 14.8323 2.03196C13.0723 2.03196 11.9523 3.55196 11.9523 6.09596C11.9523 8.62396 13.0723 10.24 14.8323 10.24ZM21.8008 12.064V0.207964H25.9288C28.4088 0.207964 30.3768 1.08796 30.3768 3.80796C30.3768 5.58396 29.4808 6.68796 28.1208 7.21596L30.8888 12.064H28.2488L25.8168 7.58396H24.1688V12.064H21.8008ZM24.1688 5.71196H25.7048C27.2248 5.71196 28.0728 5.07196 28.0728 3.80796C28.0728 2.52796 27.2248 2.09596 25.7048 2.09596H24.1688V5.71196ZM32.067 12.064V0.207964H34.435V12.064H32.067Z" fill="#9747FF"/>
</svg>
